<?xml version="1.0" encoding="utf-8"?>
<!-- Generator: Adobe Illustrator 27.5.0, SVG Export Plug-In . SVG Version: 6.00 Build 0)  -->
<svg version="1.1" xmlns="http://www.w3.org/2000/svg" xmlns:xlink="http://www.w3.org/1999/xlink" x="0px" y="0px"
	 viewBox="0 0 500 500" style="enable-background:new 0 0 500 500;" xml:space="preserve">
<g id="Background">
	<rect style="fill:#DFCCE6;" width="500" height="500"/>
	<path style="fill:#EDDCF4;" d="M392.391,394.274C421.412,361.049,439,317.58,439,270c0-104.382-84.618-189-189-189
		S61,165.618,61,270c0,47.58,17.588,91.049,46.609,124.274H392.391z"/>
</g>
<g id="Objetcs">
	<g>
		<g>
			<g>
				<path style="fill:#D1D3D4;" d="M351.388,212.888c0,0.883,0,36.004,0,36.004h-24.068v-1.715h6.624v-34.289H351.388z"/>
				<path style="fill:#A7ADAF;" d="M333.944,212.888v20.615c4.108-1.033,10.383-1.765,17.444,0.327c0-9.649,0-20.457,0-20.942
					H333.944z"/>
				<g>
					<polygon style="fill:#D1D3D4;" points="389.034,229.643 294.872,229.643 299.501,174.547 393.663,174.547 					"/>
					<polygon style="fill:#4E345B;" points="385.534,227.668 296.629,227.668 300.926,176.522 389.832,176.522 					"/>
				</g>
				<polygon style="fill:#A7ADAF;" points="333.944,247.177 351.388,247.177 351.388,248.892 327.319,248.892 327.319,247.177 				
					"/>
				<g>
					<polygon style="fill:#FFFFFF;" points="365.549,217.004 319.066,217.004 321.675,187.186 368.158,187.186 					"/>
					<polygon style="fill:#EA7880;" points="367.848,190.729 321.365,190.729 321.675,187.186 368.158,187.186 					"/>
					<polygon style="opacity:0.3;fill:#FFFFFF;" points="358.078,181.626 307.888,181.626 308.031,179.99 358.221,179.99 					"/>
					<polygon style="opacity:0.3;fill:#FFFFFF;" points="357.82,184.572 307.63,184.572 307.773,182.936 357.964,182.936 					"/>
					<polygon style="opacity:0.3;fill:#FFFFFF;" points="380.395,223.359 330.205,223.359 330.348,221.722 380.538,221.722 					"/>
					<polygon style="opacity:0.3;fill:#FFFFFF;" points="323.122,220.849 302.492,220.849 302.635,219.213 323.265,219.213 					"/>
					
						<text transform="matrix(0.9962 0 -0.0872 0.9962 323.6899 206.3563)" style="fill:#383838; font-family:'Courier'; font-size:13.5681px;">&lt;PHP&gt;</text>
				</g>
			</g>
			<g>
				<g>
					<path style="fill:#F95B5E;" d="M328.317,236.76c-0.099-0.032-0.204-0.047-0.308-0.047h-1.849v-2.031
						c0-0.164-0.09-0.312-0.236-0.386c-0.529-0.266-2.075-0.807-5.899-0.807c-3.902,0-5.433,0.563-5.93,0.822
						c-0.126,0.066-0.206,0.192-0.206,0.334v14.318c0,0,1.653,1.026,5.761,1.026c4.108,0,6.511-1.026,6.511-1.026v-1.283h2.21
						c0.186,0,0.368-0.05,0.527-0.145c0.309-0.185,1.852-1.32,1.852-5.474C330.749,237.654,328.566,236.838,328.317,236.76z
						 M327.955,245.637h-1.796v-6.88h1.584c0.263,0.211,0.957,0.987,0.957,3.305C328.701,244.312,328.19,245.298,327.955,245.637z"
						/>
					<path style="fill:#7C2327;" d="M325.556,234.729c0,0.49-2.477,0.887-5.532,0.887c-3.055,0-5.532-0.397-5.532-0.887
						c0-0.49,2.477-0.887,5.532-0.887C323.079,233.842,325.556,234.239,325.556,234.729z"/>
				</g>
			</g>
			<g>
				<path style="fill:#D1D3D4;" d="M198.731,213.384c0,0.883,0,36.004,0,36.004h24.068v-1.715h-6.624v-34.289H198.731z"/>
				<path style="fill:#A7ADAF;" d="M216.175,213.384v20.615c-4.109-1.033-10.383-1.765-17.444,0.327c0-9.649,0-20.457,0-20.942
					H216.175z"/>
				<g>
					<polygon style="fill:#D1D3D4;" points="161.085,230.139 255.247,230.139 250.617,175.043 156.455,175.043 					"/>
					<polygon style="fill:#4E345B;" points="164.585,228.164 253.49,228.164 249.192,177.018 160.287,177.018 					"/>
				</g>
				<polygon style="fill:#A7ADAF;" points="216.175,247.673 198.731,247.673 198.731,249.388 222.799,249.388 222.799,247.673 				
					"/>
				<g>
					<text transform="matrix(0.9811 0 0.0872 0.9962 164.6222 181.3019)"><tspan x="0" y="0" style="fill:#FFFFFF; font-family:'Courier'; font-size:2.0459px;">&lt;html&gt;</tspan><tspan x="0" y="2.455" style="fill:#FFFFFF; font-family:'Courier'; font-size:2.0459px;">     &lt;head&gt;</tspan><tspan x="0" y="4.91" style="fill:#FFFFFF; font-family:'Courier'; font-size:2.0459px;">         &lt;title&gt;... /picture/title;</tspan><tspan x="0" y="7.365" style="fill:#FFFFFF; font-family:'Courier'; font-size:2.0459px;">               lorem ipsum Lorem ipsum dolor sit amet,</tspan><tspan x="0" y="9.82" style="fill:#FFFFFF; font-family:'Courier'; font-size:2.0459px; letter-spacing:4.077;">			</tspan><tspan x="18.413" y="9.82" style="fill:#FFFFFF; font-family:'Courier'; font-size:2.0459px;">consectetur adipiscing elit, sed do</tspan><tspan x="0" y="12.275" style="fill:#FFFFFF; font-family:'Courier'; font-size:2.0459px; letter-spacing:4.077;">			</tspan><tspan x="18.413" y="12.275" style="fill:#FFFFFF; font-family:'Courier'; font-size:2.0459px;">eiusmod mmodo</tspan><tspan x="0" y="14.73" style="fill:#FFFFFF; font-family:'Courier'; font-size:2.0459px; letter-spacing:4.077;">			</tspan><tspan x="18.413" y="14.73" style="fill:#FFFFFF; font-family:'Courier'; font-size:2.0459px;">consequat.(copyrigth)</tspan><tspan x="0" y="17.186" style="fill:#FFFFFF; font-family:'Courier'; font-size:2.0459px;">&lt;html&gt;</tspan></text>
					<polygon style="opacity:0.3;fill:#FFFFFF;" points="247.114,221.133 225.368,221.133 223.465,199.386 245.211,199.386 					"/>
					<polygon style="opacity:0.3;fill:#FFFFFF;" points="207.063,200.92 221.344,200.92 221.209,199.386 206.929,199.386 					"/>
					<polygon style="opacity:0.3;fill:#FFFFFF;" points="215.555,204.079 221.62,204.079 221.486,202.544 215.421,202.544 					"/>
					<polygon style="opacity:0.3;fill:#FFFFFF;" points="212.538,207.237 221.896,207.237 221.762,205.703 212.404,205.703 					"/>
					<polygon style="opacity:0.3;fill:#FFFFFF;" points="208.254,210.395 222.173,210.395 222.038,208.861 208.12,208.861 					"/>
				</g>
			</g>
			<g>
				<polygon style="fill:#D1D3D4;" points="225.18,248.777 299.471,248.777 307.196,204.969 232.904,204.969 				"/>
				<polygon style="fill:#260938;" points="226.491,247.773 298.223,247.773 305.681,205.973 233.95,205.973 				"/>
				<rect x="196.696" y="245.962" style="fill:#ACAEAF;" width="102.775" height="2.815"/>
				<text transform="matrix(0.9848 0 -0.1736 0.9848 234.8311 209.947)"><tspan x="0" y="0" style="fill:#D7DF23; font-family:'Courier'; font-size:2.0382px;">&lt;html&gt;</tspan><tspan x="0" y="2.445" style="fill:#D7DF23; font-family:'Courier'; font-size:2.0382px;">     &lt;head&gt;</tspan><tspan x="0" y="4.892" style="fill:#D7DF23; font-family:'Courier'; font-size:2.0382px;">         &lt;title&gt;... /picture/title;</tspan><tspan x="0" y="7.337" style="fill:#D7DF23; font-family:'Courier'; font-size:2.0382px;">               lorem ipsum Lorem ipsum dolor sit amet,</tspan><tspan x="0" y="9.783" style="fill:#D7DF23; font-family:'Courier'; font-size:2.0382px; letter-spacing:4.062;">			</tspan><tspan x="18.343" y="9.783" style="fill:#D7DF23; font-family:'Courier'; font-size:2.0382px;">consectetur adipiscing elit, sed do</tspan><tspan x="0" y="12.229" style="fill:#D7DF23; font-family:'Courier'; font-size:2.0382px; letter-spacing:4.062;">			</tspan><tspan x="18.343" y="12.229" style="fill:#D7DF23; font-family:'Courier'; font-size:2.0382px;">eiusmod tempor incididunt ut labore et</tspan><tspan x="0" y="14.675" style="fill:#D7DF23; font-family:'Courier'; font-size:2.0382px; letter-spacing:4.062;">			</tspan><tspan x="18.343" y="14.675" style="fill:#D7DF23; font-family:'Courier'; font-size:2.0382px;">dolore magna aliqua. Ut enim ad minim</tspan><tspan x="0" y="17.12" style="fill:#D7DF23; font-family:'Courier'; font-size:2.0382px; letter-spacing:4.062;">			</tspan><tspan x="18.343" y="17.12" style="fill:#D7DF23; font-family:'Courier'; font-size:2.0382px;">veniam, quis nostrud exercitation ullamco</tspan><tspan x="0" y="19.566" style="fill:#D7DF23; font-family:'Courier'; font-size:2.0382px; letter-spacing:4.062;">			</tspan><tspan x="18.343" y="19.566" style="fill:#D7DF23; font-family:'Courier'; font-size:2.0382px;">laboris nisi ut aliquip ex ea commodo</tspan><tspan x="0" y="22.012" style="fill:#D7DF23; font-family:'Courier'; font-size:2.0382px; letter-spacing:4.062;">			</tspan><tspan x="18.343" y="22.012" style="fill:#D7DF23; font-family:'Courier'; font-size:2.0382px;">consequat.(copyrigth)</tspan><tspan x="0" y="24.458" style="fill:#D7DF23; font-family:'Courier'; font-size:2.0382px;">&lt;html&gt;</tspan></text>
			</g>
			<g>
				<g>
					
						<polyline style="fill:none;stroke:#000000;stroke-width:2.8347;stroke-linecap:round;stroke-linejoin:round;stroke-miterlimit:10;" points="
						394.851,253.458 394.851,395.38 307.664,395.38 					"/>
					
						<polyline style="fill:none;stroke:#000000;stroke-width:2.8347;stroke-linecap:round;stroke-linejoin:round;stroke-miterlimit:10;" points="
						295.317,264.045 295.317,302.21 394.851,327.376 					"/>
				</g>
				<g>
					
						<polyline style="fill:none;stroke:#000000;stroke-width:2.8347;stroke-linecap:round;stroke-linejoin:round;stroke-miterlimit:10;" points="
						211.003,253.458 211.003,395.38 123.816,395.38 					"/>
					
						<polyline style="fill:none;stroke:#000000;stroke-width:2.8347;stroke-linecap:round;stroke-linejoin:round;stroke-miterlimit:10;" points="
						111.469,264.045 111.469,302.21 211.003,327.376 					"/>
				</g>
				<rect x="101.1" y="252.065" style="fill:#E8B795;" width="299.038" height="20.201"/>
				<rect x="287.377" y="252.065" style="fill:#D3A688;" width="112.761" height="20.201"/>
				<rect x="95.757" y="248.052" style="fill:#F7C29A;" width="308.486" height="8.025"/>
				<rect x="292.9" y="248.052" style="fill:#D19C78;" width="111.343" height="8.025"/>
			</g>
			<g>
				<g>
					<polygon style="fill:#FBB040;" points="364.461,115.825 274.96,115.825 278.269,77.997 367.77,77.997 					"/>
					
						<text transform="matrix(0.9962 0 -0.0872 0.9962 307.8683 100.751)" style="fill:#FFFFFF; font-family:'CourierNewPS-BoldMT'; font-size:14.6328px;">C++</text>
				</g>
				<g>
					<polygon style="fill:#8DC63F;" points="280.74,139.902 196.696,139.902 199.804,104.382 283.848,104.382 					"/>
					
						<text transform="matrix(0.9962 0 -0.0872 0.9962 223.5218 125.3773)" style="fill:#FFFFFF; font-family:'CourierNewPS-BoldMT'; font-size:13.7406px;">HTML</text>
				</g>
				<g>
					<polygon style="fill:#DF4438;" points="329.566,161.003 267.066,161.003 269.377,134.588 331.877,134.588 					"/>
					
						<text transform="matrix(0.9962 0 -0.0872 0.9962 289.9618 151.2596)" style="fill:#FFFFFF; font-family:'CourierNewPS-BoldMT'; font-size:10.2183px;">&lt;/&gt;</text>
				</g>
			</g>
		</g>
		<g>
			<path style="fill:#D89A82;" d="M235.57,228.926c1.104-0.036,2.15,0.485,3.063,1.107c3.391,2.312,5.518,6.056,7.119,9.835
				c0.389,0.919,0.762,1.914,0.564,2.892c-0.038,0.19-0.105,0.386-0.256,0.508c-0.135,0.11-0.316,0.141-0.489,0.16
				c-1.255,0.132-2.558-0.271-3.519-1.088c-1.488-1.264-2.081-3.356-3.593-4.592c-0.132-0.108-0.281-0.212-0.451-0.22
				c-0.202-0.01-0.381,0.118-0.545,0.235c-2.76,1.978-6.262,2.893-9.637,2.518c-0.855-0.095-1.794-0.33-2.261-1.052
				c-0.371-0.574-0.346-1.318-0.203-1.987c0.536-2.505,2.226-3.646,4.25-4.857C231.457,231.281,233.289,229,235.57,228.926z"/>
			<path style="fill:#D89A82;" d="M228.49,232.331l-44.391-8.166l-15.533-27.907c-2.284-4.104-7.463-5.579-11.566-3.295
				c-4.104,2.284-5.579,7.463-3.295,11.566l17.526,31.487l0.314,0.567c1.264,2.259,3.683,3.783,6.455,3.775l49.917-0.132
				c2.171-0.004,4.054-1.585,4.435-3.793C232.609,234.938,230.946,232.723,228.49,232.331z"/>
			<path style="fill:#EEB399;" d="M253.055,231.614c1.104-0.013,2.14,0.529,3.04,1.17c3.343,2.381,5.393,6.168,6.917,9.979
				c0.37,0.926,0.722,1.929,0.505,2.903c-0.042,0.189-0.113,0.384-0.266,0.503c-0.137,0.107-0.319,0.135-0.493,0.149
				c-1.258,0.106-2.552-0.323-3.496-1.16c-1.461-1.295-2.013-3.398-3.499-4.664c-0.13-0.11-0.277-0.218-0.447-0.229
				c-0.202-0.014-0.383,0.11-0.55,0.224c-2.8,1.921-6.32,2.765-9.686,2.32c-0.853-0.113-1.787-0.366-2.239-1.098
				c-0.36-0.581-0.319-1.325-0.163-1.99c0.587-2.494,2.3-3.599,4.349-4.769C248.895,233.884,250.773,231.641,253.055,231.614z"/>
			<g>
				<path style="fill:#EEB399;" d="M212.098,389.1c0.138,1.621,0.268,3.311-0.332,4.823c-0.484,1.221-1.436,2.318-1.431,3.632
					c0.006,1.354,1.087,2.516,2.336,3.041c1.249,0.525,2.643,0.545,3.997,0.557c8.211,0.072,16.422,0.144,24.633,0.216
					c0.719,0.006,1.472,0.005,2.108-0.329c0.636-0.334,1.099-1.118,0.826-1.783c-0.167-0.405-0.554-0.67-0.93-0.893
					c-2.528-1.502-5.436-2.211-8.296-2.894c-2.86-0.683-5.769-1.38-8.309-2.862c-2.54-1.482-4.702-3.896-5.15-6.802
					c-0.146-0.949-0.13-1.986-0.699-2.761c-0.31-0.422-0.762-0.715-1.219-0.971c-1.345-0.753-2.868-1.273-4.406-1.172
					C210.333,381.221,211.806,385.686,212.098,389.1z"/>
				<path style="fill:#D89E87;" d="M223.133,389.447c-0.799-1.084-1.378-2.308-1.584-3.643c-0.146-0.949-0.13-1.986-0.699-2.761
					c-0.31-0.422-0.762-0.715-1.219-0.971c-1.344-0.753-2.868-1.273-4.406-1.172c-4.893,0.321-3.42,4.786-3.128,8.2
					c0.057,0.672,0.11,1.355,0.113,2.033c1.007-0.191,2.016-0.367,3.027-0.532C217.859,390.173,220.493,389.749,223.133,389.447z"/>
				<path style="fill:#31354F;" d="M212.671,400.596c1.249,0.525,2.643,0.545,3.997,0.557c8.211,0.072,16.422,0.144,24.633,0.216
					c0.719,0.006,1.472,0.005,2.108-0.329c0.636-0.334,1.099-1.118,0.826-1.783c-0.167-0.405-0.554-0.67-0.93-0.893
					c-2.528-1.503-5.436-2.211-8.296-2.894c-1.611-0.385-3.236-0.779-4.804-1.311c6.166,4.281-18.439-0.234-18.439-0.234
					c-0.484,1.221-1.436,2.318-1.431,3.632C210.341,398.909,211.422,400.071,212.671,400.596z"/>
			</g>
			<g>
				<path style="fill:#EEB399;" d="M256.997,338.292c0.791,1.422,1.602,2.91,1.676,4.535c0.059,1.312-0.359,2.703,0.185,3.899
					c0.561,1.233,2.023,1.849,3.378,1.816c1.354-0.033,2.634-0.587,3.874-1.132c7.518-3.303,15.036-6.605,22.554-9.908
					c0.658-0.289,1.344-0.599,1.787-1.165c0.443-0.566,0.544-1.47,0.022-1.965c-0.318-0.301-0.78-0.383-1.215-0.433
					c-2.922-0.333-5.864,0.213-8.753,0.763c-2.889,0.55-5.828,1.108-8.752,0.798c-2.924-0.31-5.886-1.624-7.487-4.091
					c-0.523-0.806-0.934-1.758-1.77-2.231c-0.456-0.258-0.989-0.34-1.51-0.386c-1.535-0.135-3.138,0.016-4.499,0.738
					C252.155,331.83,255.33,335.298,256.997,338.292z"/>
				<path style="fill:#D89E87;" d="M267.204,334.082c-1.174-0.661-2.204-1.54-2.939-2.672c-0.523-0.806-0.934-1.758-1.77-2.231
					c-0.456-0.258-0.989-0.34-1.51-0.386c-1.535-0.135-3.138,0.016-4.499,0.738c-4.331,2.3-1.156,5.768,0.511,8.762
					c0.328,0.589,0.656,1.191,0.937,1.808c0.84-0.587,1.688-1.162,2.543-1.727C262.691,336.907,264.919,335.44,267.204,334.082z"/>
				<path style="fill:#31354F;" d="M262.235,348.542c1.354-0.033,2.634-0.587,3.874-1.132c7.518-3.303,15.036-6.605,22.553-9.908
					c0.658-0.289,1.344-0.599,1.788-1.165c0.443-0.566,0.544-1.47,0.022-1.965c-0.318-0.301-0.78-0.384-1.215-0.433
					c-2.922-0.333-5.864,0.213-8.753,0.763c-1.628,0.31-3.271,0.617-4.919,0.775c7.379,1.375-16.912,7.35-16.912,7.35
					c0.059,1.312-0.359,2.703,0.185,3.899C259.418,347.959,260.881,348.575,262.235,348.542z"/>
			</g>
			<path style="fill:#31354F;" d="M136.717,293.309c0,0,68.922-28.743,79.687-28.396c10.765,0.347,48.883,67.66,48.883,67.66
				s-7.192,9.822-13.665,7.215c0,0-30.603-41.529-34.182-48.017c0,0-35.122,17.225-39.82,17.449
				C172.922,309.444,139.661,297.531,136.717,293.309z"/>
			<path style="fill:#1E2133;" d="M186.072,273.887c-4.941,1.809-10.065,3.747-15.06,5.676c0.713,0.252,1.477,0.502,2.349,0.749
				c18.267,5.173,40.903,13.003,40.903,13.003l0,0c0.329-0.159,0.636-0.308,0.92-0.446
				C199.2,288.762,189.323,277.956,186.072,273.887z"/>
			<path style="fill:#31354F;" d="M130.163,273.536c0,0-19.014,40.273,24.117,41.6c43.13,1.327,45.785,1.106,45.785,1.106
				s7.951,66.978,9.942,71.402c0,0,3.76,2.654,13.713,0c0,0,2.665-62.554,3.55-74.277c0.885-11.723,0.111-15.375-16.146-21.233
				c-22.969-8.277-37.763-11.822-37.763-11.822l-2.492-10.297c0,0-21.569,2.617-37.658-5.106L130.163,273.536z"/>
			<path style="fill:#EEB399;" d="M183.308,183.996l-2.443,13.153c0,0-9.954,2.255-12.211-3.194
				c-2.257-5.449,4.695-13.341,4.695-13.341L183.308,183.996z"/>
			<path style="fill:#FAA263;" d="M169.126,188.412c0,0-18.634-2.118-24.987,32.186c-6.353,34.304-13.976,52.938-13.976,52.938
				s17.364,13.552,43.197,6.776c0,0,10.588-23.293,18.634-38.539c8.047-15.246,6.353-31.763-2.541-42.774
				C180.561,187.988,169.126,188.412,169.126,188.412z"/>
			<path style="fill:#E58E53;" d="M196.614,228.233l-17.256-12.719c0,0,8.05,23.268,6.918,37.519
				c1.935-3.923,3.892-7.799,5.719-11.26C194.35,237.312,195.864,232.742,196.614,228.233z"/>
			<path style="fill:#E58E53;" d="M154.1,235.783c1.883-0.063,3.792-0.249,5.544-0.94c1.593-0.628,2.999-1.651,4.316-2.745
				c1.551-1.289,3.027-2.719,4.019-4.475c2.526-4.471,1.527-10.264,3.931-14.802c1.034-1.953,2.637-3.544,3.808-5.417
				c1.538-2.46,2.294-5.401,2.133-8.298c-0.061-1.104-0.299-2.29-1.123-3.027c-0.685-0.613-1.65-0.799-2.568-0.842
				c-3.132-0.15-6.16,1.05-9.018,2.34c-6.358,2.87-12.574,6.415-17.805,10.977c-1.24,3.414-2.335,7.383-3.199,12.045
				c-0.863,4.658-1.749,9.016-2.636,13.088C145.385,235.464,150.025,235.92,154.1,235.783z"/>
			<path style="fill:#EEB399;" d="M199.505,152.896c1.285,3.007,1.309,6.179,1.246,9.428c-0.067,3.417,0.611,6.826,0.406,10.317
				c-0.404,6.888-3.298,13.819-11.046,14.425c-18.311,1.433-21.566-6.968-21.401-16.092c0.166-9.124-0.829-24.552,14.765-24.718
				c6.105-0.065,12.503-0.423,15.688,5.905C199.286,152.404,199.399,152.65,199.505,152.896z"/>
			<path style="fill:none;stroke:#F95B5E;stroke-miterlimit:10;" d="M202.603,167.606c0,3.334-0.734,6.036-1.639,6.036
				c-0.905,0-1.639-2.702-1.639-6.036c0-3.333,0.734-6.036,1.639-6.036C201.869,161.57,202.603,164.273,202.603,167.606z"/>
			<path style="fill:#D89E87;" d="M185.424,179.619c0,0-3.477,1.439-6.928-3.575l4.96-2.076L185.424,179.619z"/>
			<path style="fill:#EEB399;" d="M248.273,234.868l-44.214-9.072l-14.96-28.219c-2.2-4.15-7.347-5.73-11.497-3.53
				c-4.15,2.2-5.73,7.347-3.531,11.497l16.878,31.838l0.302,0.573c1.218,2.284,3.605,3.857,6.377,3.907l49.909,0.888
				c2.171,0.041,4.086-1.502,4.512-3.702C252.339,237.559,250.721,235.31,248.273,234.868z"/>
			<path style="fill:#FAA263;" d="M189.1,197.577c-2.2-4.15-7.347-5.73-11.497-3.53c-4.15,2.2-5.73,7.347-3.531,11.497
				l16.878,31.838l0.302,0.573c0.093,0.175,0.206,0.337,0.312,0.503c3.875-6.168,9.179-11.013,12.094-13.416L189.1,197.577z"/>
			
				<path style="fill:none;stroke:#A05A2B;stroke-width:0.5669;stroke-linecap:round;stroke-linejoin:round;stroke-miterlimit:10;" d="
				M174.531,190.365c2.056,0.757,4.05,1.682,5.955,2.763"/>
			<path style="fill:#442614;" d="M200.698,146.595c2.265,2.613,3.345,6.248,3.059,9.68c-0.222,2.673-1.134,5.246-2.27,7.677
				c-1.398,2.991-3.182,5.86-5.656,8.046c-2.475,2.186-5.706,3.642-9.005,3.513c-3.743-0.146-7.005,0.648-8.813,4.382
				c-0.462,0.954-0.736,1.988-0.933,3.029c-0.708,3.731-0.404,7.456,0.749,11.041c0.966,3.003,2.385,6.697,0.566,9.686
				c-1.573,2.585-4.653,3.197-6.696,5.183c-1.893,1.84-2.855,4.535-3.307,7.082c-0.657,3.702-0.611,7.644-2.383,10.96
				c-2.053,3.843-6.277,6.154-10.567,6.911c-4.291,0.757-8.696,0.17-12.998-0.522c-2.708-0.436-6.434-0.48-7.634-3.365
				c-0.878-2.111-1.781-4.295-1.988-6.595c-0.191-2.123,0.728-4.248,1.174-6.324c0.436-2.032,0.91-4.066,1.694-5.99
				c3.599-8.819,13.241-14.27,16.146-23.341c1.072-3.348,1.131-6.958,2.24-10.294c0.777-2.336,2.048-4.475,2.995-6.747
				c1.119-2.684,1.778-5.533,2.431-8.367c0.778-3.373,1.111-7.629,2.766-10.638c1.537-2.793,3.888-5.097,6.602-6.743
				C177.843,139.417,193.201,137.945,200.698,146.595z"/>
			<path style="fill:#35170B;" d="M132.821,223.302c0.207,2.3,1.11,4.484,1.988,6.595c1.2,2.885,4.926,2.929,7.634,3.365
				c4.302,0.693,8.707,1.28,12.998,0.522c4.291-0.757,8.515-3.068,10.567-6.912c1.771-3.316,1.726-7.258,2.383-10.96
				c0.452-2.547,1.415-5.242,3.307-7.082c2.042-1.986,5.123-2.599,6.696-5.183c1.82-2.989,0.4-6.683-0.566-9.686
				c-1.153-3.585-1.457-7.309-0.749-11.041c0.197-1.041,0.471-2.076,0.933-3.029c1.809-3.734,5.07-4.528,8.813-4.382
				c3.299,0.129,6.531-1.327,9.005-3.513c2.474-2.186,4.258-5.055,5.656-8.046c1.136-2.43,2.048-5.003,2.27-7.677
				c0.285-3.432-0.795-7.067-3.059-9.68c-0.829-0.956-1.759-1.782-2.761-2.5c2.844,5.296,3.303,11.908,0.889,17.439
				c-0.547-2.666-1.938-5.153-3.923-7.014c1.117,4.163,0.767,8.704-0.975,12.647c-0.541-2.294-1.946-4.373-3.873-5.731
				c-2.326,6.548-10.087,9.401-14.043,15.114c-5.007,7.231-2.932,17.333-6.605,25.326c-2.014,4.384-5.604,7.8-8.778,11.433
				c-3.174,3.633-6.108,7.889-6.31,12.71c-0.667-2.059-1.334-4.117-2.001-6.176c-2.254,1.759-3.561,4.88-6.321,5.63
				c-1.522,0.414-3.168-0.034-4.541-0.81c-4.034-2.28-5.789-6.771-6.508-11.515c-0.376,1.26-0.677,2.545-0.953,3.832
				C133.549,219.054,132.631,221.179,132.821,223.302z"/>
			<path style="fill:#EEB399;" d="M185.573,172.504c-0.704-0.9-1.842-1.4-2.747-0.845c-0.529,0.324-0.903,0.96-1.104,1.65
				c-0.201,0.689-0.246,1.434-0.254,2.167c-0.012,1.178,0.11,2.475,0.8,3.281c0.595,0.694,1.471,0.851,2.287,0.861
				c0.415,0.005,0.84-0.021,1.222-0.221c0.542-0.283,0.945-0.9,1.139-1.59C187.412,176.049,186.565,173.774,185.573,172.504z"/>
			<path style="fill:#D89E87;" d="M185.049,174.124c0.176,0.497,0.353,0.995,0.448,1.514c0.151,0.821,0.09,1.681-0.174,2.473
				c-0.02,0.059-0.053,0.128-0.115,0.133c-0.06,0.005-0.104-0.054-0.134-0.107c-0.421-0.733-0.702-1.545-0.833-2.379
				c-0.065-0.417-0.093-0.841-0.081-1.263c0.008-0.289-0.042-0.954,0.236-1.138C184.764,173.113,184.967,173.892,185.049,174.124z"
				/>
			
				<path style="fill:none;stroke:#A5583D;stroke-width:0.2835;stroke-linecap:round;stroke-linejoin:round;stroke-miterlimit:10;" d="
				M184.671,172.335c0,0-1.364,2.261,0.606,6.152"/>
			
				<path style="fill:none;stroke:#A5583D;stroke-width:0.2835;stroke-linecap:round;stroke-linejoin:round;stroke-miterlimit:10;" d="
				M184.224,174.098c-0.004,0.067,0.863,1.595,0.649,3.505"/>
			<path style="fill:#442614;" d="M165.663,148.13c-0.88,0.661-1.669,1.542-2.364,2.448c-0.697,0.917-1.299,1.907-1.835,2.932
				c-0.527,1.03-0.977,2.101-1.358,3.198c-0.385,1.096-0.68,2.221-0.943,3.355c-0.01,0.047-0.056,0.078-0.103,0.068
				c-0.046-0.01-0.076-0.057-0.068-0.103c0.232-1.146,0.498-2.288,0.855-3.406c0.354-1.118,0.778-2.215,1.284-3.277
				c0.515-1.057,1.101-2.084,1.789-3.045c0.699-0.959,1.449-1.864,2.416-2.634c0.122-0.098,0.301-0.077,0.398,0.045
				c0.097,0.122,0.077,0.301-0.045,0.398c-0.002,0.001-0.003,0.003-0.005,0.004L165.663,148.13z"/>
			<path style="fill:#442614;" d="M186.216,140.582c1.65-0.216,3.269-0.138,4.878,0.092c1.602,0.242,3.186,0.63,4.693,1.223
				c1.499,0.602,2.971,1.294,4.308,2.202c0.698,0.409,1.316,0.933,1.967,1.408c0.634,0.498,1.215,1.059,1.824,1.586
				c0.05,0.043,0.056,0.119,0.012,0.169c-0.043,0.049-0.117,0.055-0.167,0.014l-0.01-0.008c-0.613-0.511-1.197-1.058-1.832-1.539
				c-0.652-0.459-1.27-0.967-1.966-1.358c-1.333-0.874-2.796-1.529-4.277-2.096c-1.489-0.558-3.048-0.911-4.617-1.121
				c-1.565-0.201-3.182-0.242-4.712-0.016l-0.023,0.003c-0.155,0.023-0.299-0.084-0.322-0.239c-0.023-0.155,0.084-0.299,0.239-0.322
				C186.212,140.582,186.214,140.582,186.216,140.582z"/>
			<path style="fill:#35170B;" d="M187.661,179.517c-0.04,1.051-0.634,1.986-1.053,2.951c-0.419,0.965-0.642,2.167-0.009,3.007
				c0.074-0.9,0.45-1.773,1.052-2.446c0.828-0.925,2.104-1.545,2.455-2.735c0.436-1.478-0.803-3.088-0.308-4.547
				c0.181-0.535,0.591-1.025,0.531-1.587c-0.065-0.613-0.681-1.03-1.284-1.157c-1.569-0.329-1.979,0.852-2.069,2.14
				C186.868,176.674,187.717,178.014,187.661,179.517z"/>
			
				<path style="fill:none;stroke:#A05A2B;stroke-width:0.5669;stroke-linecap:round;stroke-linejoin:round;stroke-miterlimit:10;" d="
				M192.639,232.519c2.212-2.322,4.708-4.373,7.415-6.094"/>
			
				<path style="fill:none;stroke:#A05A2B;stroke-width:0.5669;stroke-linecap:round;stroke-linejoin:round;stroke-miterlimit:10;" d="
				M195.151,228.92c1.311-1.488,2.754-2.86,4.306-4.094"/>
			
				<path style="fill:none;stroke:#A05A2B;stroke-width:0.5669;stroke-linecap:round;stroke-linejoin:round;stroke-miterlimit:10;" d="
				M195.988,225.604c0.565-0.451,1.161-0.864,1.78-1.237"/>
			
				<path style="fill:none;stroke:#A05A2B;stroke-width:0.5669;stroke-linecap:round;stroke-linejoin:round;stroke-miterlimit:10;" d="
				M140.308,273.979c7.118,3.385,15.325,3.32,23.206,3.188"/>
			
				<path style="fill:none;stroke:#A05A2B;stroke-width:0.5669;stroke-linecap:round;stroke-linejoin:round;stroke-miterlimit:10;" d="
				M152.349,275.311c3.75-0.149,7.486-0.644,11.146-1.477"/>
			<path style="fill:#1E2133;" d="M219.718,295.771c0,0,2.988,10.7,7.607,16.839v-6.306
				C227.325,306.305,223.18,300.426,219.718,295.771z"/>
			
				<path style="fill:none;stroke:#7E87AA;stroke-width:0.2835;stroke-linecap:round;stroke-linejoin:round;stroke-miterlimit:10;" d="
				M128.63,293.776c0,0,7.397-0.994,13.69-0.773c0,0,6.072,12.518-0.773,13.877C134.703,308.238,129.293,301.283,128.63,293.776z"/>
			
				<path style="fill:none;stroke:#7E87AA;stroke-width:0.2835;stroke-linecap:round;stroke-linejoin:round;stroke-miterlimit:10;" d="
				M153.734,282.662c7.17-0.714,14.436-0.454,21.536,0.773"/>
			
				<path style="fill:none;stroke:#7E87AA;stroke-width:0.2835;stroke-linecap:round;stroke-linejoin:round;stroke-miterlimit:10;" d="
				M131.266,275.308c-0.217,0.897-0.534,1.77-0.943,2.598"/>
			
				<path style="fill:none;stroke:#7E87AA;stroke-width:0.2835;stroke-linecap:round;stroke-linejoin:round;stroke-miterlimit:10;" d="
				M132.201,275.932c-0.349,0.913-0.634,1.851-0.852,2.805"/>
			
				<path style="fill:none;stroke:#7E87AA;stroke-width:0.2835;stroke-linecap:round;stroke-linejoin:round;stroke-miterlimit:10;" d="
				M135.835,278.428c-0.14,0.797-0.28,1.595-0.42,2.392"/>
			
				<path style="fill:none;stroke:#7E87AA;stroke-width:0.2835;stroke-linecap:round;stroke-linejoin:round;stroke-miterlimit:10;" d="
				M137.813,278.948c-0.298,0.956-0.538,1.93-0.72,2.915"/>
			
				<path style="fill:none;stroke:#7E87AA;stroke-width:0.2835;stroke-linecap:round;stroke-linejoin:round;stroke-miterlimit:10;" d="
				M142.414,280.719c-0.04,0.867-0.08,1.733-0.12,2.6"/>
			
				<path style="fill:none;stroke:#7E87AA;stroke-width:0.2835;stroke-linecap:round;stroke-linejoin:round;stroke-miterlimit:10;" d="
				M143.957,281.446c-0.119,0.756-0.154,1.525-0.104,2.289"/>
			
				<path style="fill:none;stroke:#7E87AA;stroke-width:0.2835;stroke-linecap:round;stroke-linejoin:round;stroke-miterlimit:10;" d="
				M148.119,282.383c-0.035,0.694-0.069,1.387-0.104,2.081"/>
			
				<path style="fill:none;stroke:#7E87AA;stroke-width:0.2835;stroke-linecap:round;stroke-linejoin:round;stroke-miterlimit:10;" d="
				M149.679,282.487c-0.048,1.11-0.014,2.224,0.104,3.329"/>
			<path style="fill:#35170B;" d="M153.954,219.213c0,0,2.495-10.547,10.668-17.118
				C164.622,202.095,154.076,208.381,153.954,219.213z"/>
			<path style="fill:#35170B;" d="M177.509,143.951c0.416-0.083,12.537-5.079,20.26,2.28c0,0-7.889-5.234-17.282-2.28
				c0,0,9.024,1.131,12.152,5.02c0,0-6.474-4.035-12.794-3.415c0,0-6.357,3.172-6.764,11.438c0,0-1.652-6.548,5.416-11.547
				c0,0-5.022-1.542-11.657,5.814C166.839,151.26,168.486,145.759,177.509,143.951z"/>
		</g>
		<g>
			<path d="M160.963,332.052c-0.942-0.667-25.904-5-23.423-52.333v-48.223c0-4.848-3.93-8.777-8.777-8.777h-22.51
				c-3.626,0-6.565,2.939-6.565,6.565v51.102c0,0-1.296,47.333,37.852,51.667H160.963z"/>
			<path d="M210.243,332.138h-69.731c-1.881,0-3.42-1.539-3.42-3.42v-10.857c0-1.881,1.539-3.42,3.42-3.42h69.731
				c1.881,0,3.42,1.539,3.42,3.42v10.857C213.663,330.599,212.124,332.138,210.243,332.138z"/>
			<g>
				<path d="M206.906,287.147H146.21c-2.088,0-3.796-1.708-3.796-3.796V283.1c0-2.087,1.708-3.796,3.796-3.796h60.697
					c2.087,0,3.796,1.708,3.796,3.796v0.252C210.702,285.439,208.994,287.147,206.906,287.147z"/>
				<path style="fill:#8FBCDA;" d="M206.053,282.527H147.97c-1.196,0-2.174-0.978-2.174-2.174v-0.144
					c0-1.196,0.979-2.174,2.174-2.174h58.082c1.196,0,2.174,0.978,2.174,2.174v0.144
					C208.227,281.549,207.249,282.527,206.053,282.527z"/>
			</g>
			
				<path style="fill:none;stroke:#7D818E;stroke-width:0.5669;stroke-linecap:round;stroke-linejoin:round;stroke-miterlimit:10;" d="
				M105.754,225.092h21.711c0,0,7.063,0.467,6.9,12.745c-0.162,12.278,0,50.61,0,50.61s0.586,15.086,4.33,24.164"/>
			
				<line style="fill:none;stroke:#000000;stroke-width:2.8347;stroke-linecap:round;stroke-linejoin:round;stroke-miterlimit:10;" x1="198.849" y1="285.505" x2="198.849" y2="316.242"/>
			
				<line style="fill:none;stroke:#000000;stroke-width:2.8347;stroke-linecap:round;stroke-linejoin:round;stroke-miterlimit:10;" x1="153.734" y1="285.505" x2="153.734" y2="316.242"/>
			<path d="M160.727,352.623h-5.611c-0.275,0-0.5-0.225-0.5-0.5v-32.778c0-0.275,0.225-0.5,0.5-0.5h5.611c0.275,0,0.5,0.225,0.5,0.5
				v32.778C161.227,352.398,161.003,352.623,160.727,352.623z"/>
			
				<polyline style="fill:none;stroke:#000000;stroke-width:2.8347;stroke-linecap:round;stroke-linejoin:round;stroke-miterlimit:10;" points="
				189.129,393.007 185.487,388.326 129.671,388.326 126.099,393.007 			"/>
			<path d="M129.616,396.826c0,2.73-2.213,4.944-4.944,4.944c-2.73,0-4.944-2.213-4.944-4.944s2.213-4.944,4.944-4.944
				C127.402,391.882,129.616,394.096,129.616,396.826z"/>
			<path d="M161.851,396.826c0,2.73-1.759,4.944-3.929,4.944c-2.17,0-3.929-2.213-3.929-4.944s1.759-4.944,3.929-4.944
				C160.092,391.882,161.851,394.096,161.851,396.826z"/>
			<path d="M196.116,396.826c0,2.73-2.213,4.944-4.944,4.944c-2.73,0-4.944-2.213-4.944-4.944s2.213-4.944,4.944-4.944
				C193.902,391.882,196.116,394.096,196.116,396.826z"/>
			
				<line style="fill:none;stroke:#000000;stroke-width:2.8347;stroke-linecap:round;stroke-linejoin:round;stroke-miterlimit:10;" x1="157.922" y1="346.63" x2="157.922" y2="393.923"/>
			
				<polyline style="fill:none;stroke:#000000;stroke-width:1.4173;stroke-linecap:round;stroke-linejoin:round;stroke-miterlimit:10;" points="
				156.433,340.228 142.78,340.228 137.093,345.84 			"/>
		</g>
	</g>
</g>
<g id="Designed_by_freepik">
	<g>
		<g id="XMLID_1_">
			<g id="XMLID_20_">
				<path id="XMLID_28_" style="fill:#112129;" d="M260.104,466.12c-0.432,0.443-0.803,0.931-1.108,1.453l-0.465-0.241
					c-0.067-0.298-0.349-0.503-0.659-0.466c-0.331,0.039-0.568,0.339-0.529,0.67c0.039,0.331,0.339,0.568,0.67,0.529
					c0.066-0.008,0.127-0.026,0.184-0.052l0.451,0.234c-0.251,0.554-0.433,1.139-0.539,1.744l0.747,0.132
					c0.23-1.306,0.85-2.507,1.792-3.473L260.104,466.12z"/>
				<path id="XMLID_27_" style="fill:#112129;" d="M265.592,463.818c-0.171,0-0.341,0.006-0.51,0.017l-0.074-0.626
					c0.188-0.149,0.296-0.389,0.266-0.645c-0.046-0.393-0.402-0.674-0.795-0.628c-0.393,0.046-0.674,0.402-0.628,0.795
					c0.03,0.254,0.189,0.461,0.404,0.564l0.074,0.624c-0.714,0.116-1.403,0.332-2.06,0.646l0.327,0.684
					c0.934-0.447,1.942-0.673,2.995-0.673c0.496,0,0.993,0.053,1.475,0.158l0.161-0.741
					C266.692,463.877,266.142,463.818,265.592,463.818z"/>
				<path id="XMLID_26_" style="fill:#112129;" d="M272.194,466.366c0.331-0.04,0.566-0.342,0.526-0.672
					c-0.04-0.331-0.341-0.566-0.672-0.526c-0.309,0.038-0.535,0.304-0.53,0.609l-0.416,0.363c-0.418-0.43-0.889-0.813-1.408-1.139
					l-0.404,0.641c1.134,0.715,2.021,1.726,2.563,2.925l0.69-0.313c-0.251-0.554-0.567-1.072-0.942-1.545l0.402-0.351
					C272.065,466.37,272.129,466.374,272.194,466.366z"/>
				<path id="XMLID_25_" style="fill:#112129;" d="M265.044,474.027c-0.386,0.023-0.775,0.035-1.157,0.035
					c-0.88,0-1.733-0.061-2.478-0.179c-0.39-0.062-0.846-0.155-1.27-0.292c1.046,1.861,3.069,3.125,5.388,3.125
					c2.855,0,5.262-1.916,5.95-4.504c-0.682,0.449-1.505,0.825-2.459,1.123C267.839,473.702,266.463,473.941,265.044,474.027z"/>
				<path id="XMLID_21_" style="fill:#112129;" d="M265.592,465.334c-3.352,0-6.08,2.666-6.08,5.943
					c0,0.426,0.046,0.849,0.137,1.261c0.673,0.483,2.706,0.89,5.348,0.731c2.879-0.173,5.297-0.957,6.672-2.159
					c-0.006-0.195-0.021-0.39-0.045-0.582C271.244,467.568,268.65,465.334,265.592,465.334z M263.432,471.849
					c-1.02,0-1.85-0.83-1.85-1.85c0-1.02,0.83-1.85,1.85-1.85c1.02,0,1.85,0.83,1.85,1.85
					C265.282,471.02,264.452,471.849,263.432,471.849z M268.17,470.941c-0.75,0-1.36-0.61-1.36-1.36c0-0.75,0.61-1.361,1.36-1.361
					c0.75,0,1.361,0.61,1.361,1.361C269.53,470.331,268.92,470.941,268.17,470.941z"/>
			</g>
			<path id="XMLID_18_" style="fill:#112129;" d="M281.595,467.202c-0.295-0.116-0.805-0.309-1.382-0.237
				c-0.551,0.069-0.844,0.341-0.844,1.007v0.866h2.228v1.717h-2.228v5.455h-1.932v-5.455h-1.34v-1.717h1.34v-0.888
				c0-1.68,0.896-2.783,2.568-2.783c0.643,0,1.157,0.122,1.59,0.308L281.595,467.202z"/>
			<path id="XMLID_16_" style="fill:#112129;" d="M286.298,470.534c-0.177-0.03-0.358-0.046-0.526-0.046
				c-0.896,0-1.51,0.548-1.51,1.613v3.908h-1.932v-7.172h1.873v0.785c0.451-0.673,1.14-0.977,2.021-0.977
				c0.414,0,0.848,0.128,1.094,0.337L286.298,470.534z"/>
			<path id="XMLID_13_" style="fill:#112129;" d="M293.965,472.412c0,0.222-0.015,0.489-0.037,0.651h-5.085
				c0.207,1.036,0.933,1.488,1.843,1.488c0.622,0,1.295-0.252,1.813-0.688l1.133,1.243c-0.814,0.748-1.85,1.088-3.057,1.088
				c-2.198,0-3.723-1.495-3.723-3.753c0-2.258,1.48-3.797,3.627-3.797C292.544,468.644,293.958,470.177,293.965,472.412z
				 M288.851,471.746h3.175c-0.177-0.918-0.733-1.436-1.562-1.436C289.554,470.31,289.021,470.858,288.851,471.746z"/>
			<path id="XMLID_10_" style="fill:#112129;" d="M301.618,472.412c0,0.222-0.015,0.489-0.037,0.651h-5.085
				c0.207,1.036,0.933,1.488,1.843,1.488c0.622,0,1.295-0.252,1.814-0.688l1.132,1.243c-0.814,0.748-1.85,1.088-3.057,1.088
				c-2.198,0-3.723-1.495-3.723-3.753c0-2.258,1.48-3.797,3.627-3.797C300.197,468.644,301.611,470.177,301.618,472.412z
				 M296.504,471.746h3.175c-0.178-0.918-0.733-1.436-1.562-1.436C297.207,470.31,296.674,470.858,296.504,471.746z"/>
			<path id="XMLID_7_" style="fill:#112129;" d="M309.964,472.419c0,2.154-1.495,3.775-3.471,3.775
				c-0.962,0-1.643-0.378-2.109-0.933v3.708h-1.924v-10.133h1.887v0.792c0.466-0.585,1.155-0.984,2.139-0.984
				C308.469,468.644,309.964,470.265,309.964,472.419z M304.287,472.419c0,1.132,0.748,1.976,1.843,1.976
				c1.14,0,1.85-0.881,1.85-1.976c0-1.095-0.71-1.976-1.85-1.976C305.035,470.443,304.287,471.287,304.287,472.419z"/>
			<path id="XMLID_4_" style="fill:#112129;" d="M313.068,466.491c0,0.696-0.54,1.229-1.236,1.229c-0.696,0-1.229-0.533-1.229-1.229
				c0-0.696,0.533-1.243,1.229-1.243C312.527,465.247,313.068,465.795,313.068,466.491z M312.809,476.009h-1.932v-7.172h1.932
				V476.009z"/>
			<path id="XMLID_2_" style="fill:#112129;" d="M316.032,471.39l2.701-2.554h2.368l-3.479,3.375l3.501,3.797h-2.376l-2.716-2.901
				v2.901H314.1v-10.658h1.932V471.39z"/>
		</g>
		<g>
			<path style="fill:#112129;" d="M184.412,475.944v-1.055c-0.527,0.718-1.391,1.23-2.387,1.23c-1.846,0-3.149-1.406-3.149-3.706
				c0-2.256,1.289-3.721,3.149-3.721c0.952,0,1.816,0.469,2.387,1.245v-3.765h1.099v9.77H184.412z M184.412,474.025v-3.208
				c-0.395-0.615-1.245-1.143-2.124-1.143c-1.421,0-2.27,1.172-2.27,2.739c0,1.567,0.85,2.724,2.27,2.724
				C183.168,475.138,184.017,474.64,184.412,474.025z"/>
			<path style="fill:#112129;" d="M186.932,472.399c0-2.051,1.465-3.706,3.486-3.706c2.139,0,3.398,1.67,3.398,3.794v0.279h-5.727
				c0.088,1.333,1.025,2.446,2.549,2.446c0.805,0,1.626-0.322,2.182-0.893l0.527,0.718c-0.703,0.703-1.655,1.084-2.812,1.084
				C188.44,476.12,186.932,474.611,186.932,472.399z M190.403,469.602c-1.509,0-2.256,1.274-2.314,2.358h4.643
				C192.718,470.905,192.015,469.602,190.403,469.602z"/>
			<path style="fill:#112129;" d="M194.607,475.006l0.571-0.791c0.469,0.542,1.362,1.011,2.329,1.011c1.084,0,1.67-0.513,1.67-1.216
				c0-1.714-4.38-0.659-4.38-3.281c0-1.098,0.952-2.036,2.636-2.036c1.201,0,2.051,0.454,2.622,1.025l-0.513,0.762
				c-0.424-0.513-1.201-0.894-2.109-0.894c-0.967,0-1.567,0.483-1.567,1.113c0,1.552,4.38,0.527,4.38,3.281
				c0,1.187-0.952,2.138-2.783,2.138C196.306,476.12,195.325,475.768,194.607,475.006z"/>
			<path style="fill:#112129;" d="M201.477,467.126c0-0.41,0.337-0.747,0.732-0.747c0.41,0,0.747,0.337,0.747,0.747
				c0,0.41-0.337,0.732-0.747,0.732C201.814,467.858,201.477,467.536,201.477,467.126z M201.667,475.944v-7.075h1.099v7.075H201.667
				z"/>
			<path style="fill:#112129;" d="M204.582,477.76l0.556-0.82c0.586,0.703,1.289,0.967,2.3,0.967c1.172,0,2.27-0.571,2.27-2.124
				v-1.011c-0.513,0.718-1.377,1.26-2.373,1.26c-1.845,0-3.149-1.377-3.149-3.662c0-2.27,1.289-3.676,3.149-3.676
				c0.952,0,1.802,0.469,2.373,1.245v-1.069h1.098v6.87c0,2.344-1.641,3.076-3.369,3.076
				C206.237,478.815,205.417,478.58,204.582,477.76z M209.709,473.908v-3.091c-0.381-0.615-1.23-1.143-2.109-1.143
				c-1.421,0-2.27,1.128-2.27,2.695c0,1.553,0.849,2.695,2.27,2.695C208.478,475.065,209.328,474.523,209.709,473.908z"/>
			<path style="fill:#112129;" d="M217.413,475.944v-4.629c0-1.245-0.63-1.641-1.582-1.641c-0.865,0-1.685,0.527-2.095,1.099v5.17
				h-1.099v-7.075h1.099v1.025c0.498-0.586,1.464-1.201,2.519-1.201c1.48,0,2.256,0.747,2.256,2.285v4.966H217.413z"/>
			<path style="fill:#112129;" d="M219.932,472.399c0-2.051,1.465-3.706,3.486-3.706c2.139,0,3.398,1.67,3.398,3.794v0.279h-5.727
				c0.088,1.333,1.025,2.446,2.549,2.446c0.806,0,1.626-0.322,2.183-0.893l0.527,0.718c-0.703,0.703-1.655,1.084-2.812,1.084
				C221.441,476.12,219.932,474.611,219.932,472.399z M223.404,469.602c-1.509,0-2.256,1.274-2.314,2.358h4.643
				C225.718,470.905,225.015,469.602,223.404,469.602z"/>
			<path style="fill:#112129;" d="M233.35,475.944v-1.055c-0.527,0.718-1.392,1.23-2.388,1.23c-1.846,0-3.149-1.406-3.149-3.706
				c0-2.256,1.289-3.721,3.149-3.721c0.952,0,1.817,0.469,2.388,1.245v-3.765h1.098v9.77H233.35z M233.35,474.025v-3.208
				c-0.396-0.615-1.245-1.143-2.124-1.143c-1.421,0-2.27,1.172-2.27,2.739c0,1.567,0.849,2.724,2.27,2.724
				C232.105,475.138,232.954,474.64,233.35,474.025z"/>
			<path style="fill:#112129;" d="M239.692,475.944v-9.77h1.098v3.765c0.572-0.776,1.421-1.245,2.388-1.245
				c1.845,0,3.149,1.465,3.149,3.721c0,2.299-1.304,3.706-3.149,3.706c-0.996,0-1.86-0.513-2.388-1.23v1.055H239.692z
				 M242.9,475.138c1.436,0,2.285-1.157,2.285-2.724c0-1.568-0.85-2.739-2.285-2.739c-0.864,0-1.728,0.527-2.109,1.143v3.208
				C241.171,474.64,242.036,475.138,242.9,475.138z"/>
			<path style="fill:#112129;" d="M247.528,477.716c0.161,0.073,0.425,0.117,0.601,0.117c0.483,0,0.805-0.161,1.055-0.747
				l0.469-1.069l-2.959-7.148h1.187l2.358,5.801l2.344-5.801h1.201l-3.545,8.51c-0.425,1.025-1.143,1.421-2.08,1.435
				c-0.234,0-0.601-0.044-0.805-0.103L247.528,477.716z"/>
		</g>
	</g>
</g>
</svg>
