<svg xmlns="http://www.w3.org/2000/svg" version="1.1" xmlns:xlink="http://www.w3.org/1999/xlink" width="512" height="512" x="0" y="0" viewBox="0 0 512 512" style="enable-background:new 0 0 512 512" xml:space="preserve" class="">
  <g>
    <path d="M290.607 59.861h-69.214c-18.001 0-32.593 14.592-32.593 32.593v66.916h134.4V92.454c0-18.001-14.593-32.593-32.593-32.593z" style="" fill="#fe76a8" data-original="#fe76a8"></path>
    <path d="M256.59 59.86c-18 0-32.59 14.59-32.59 32.59v66.92h-35.2V92.45c0-18 14.59-32.59 32.59-32.59h35.2z" style="" fill="#fe5694" data-original="#fe5694"></path>
    <path d="M188.8 138.64V92.45c0-16.95 12.94-30.88 29.49-32.44M293.71 60.01c16.55 1.56 29.49 15.49 29.49 32.44v46.19" style="stroke-width:15;stroke-linecap:round;stroke-linejoin:round;stroke-miterlimit:10;" fill="none" stroke="#000000" stroke-width="15" stroke-linecap="round" stroke-linejoin="round" stroke-miterlimit="10" data-original="#000000"></path>
    <path d="M295.79 47.29c0 21.98-17.81 39.8-39.79 39.8s-39.79-17.82-39.79-39.8c0-5.25 1.02-10.26 2.87-14.85 16.188 6.634 20.19 2.978 36.92 2.978s18.518 4.8 36.92-2.978c1.85 4.59 2.87 9.6 2.87 14.85z" style="" fill="#ffdfcf" data-original="#ffdfcf"></path>
    <path d="M292.92 32.44c-5.88 14.63-20.19 24.95-36.92 24.95s-31.04-10.32-36.92-24.95C224.96 17.82 239.27 7.5 256 7.5s31.04 10.32 36.92 24.94z" style="" fill="#7a6d79" data-original="#7a6d79"></path>
    <circle cx="256" cy="47.294" r="39.794" style="stroke-width:15;stroke-linecap:round;stroke-linejoin:round;stroke-miterlimit:10;" fill="none" stroke="#000000" stroke-width="15" stroke-linecap="round" stroke-linejoin="round" stroke-miterlimit="10" data-original="#000000"></circle>
    <path d="M219.08 32.44c5.88 14.63 20.19 24.95 36.92 24.95s31.04-10.32 36.92-24.95" style="stroke-width:15;stroke-linecap:round;stroke-linejoin:round;stroke-miterlimit:10;" fill="none" stroke="#000000" stroke-width="15" stroke-linecap="round" stroke-linejoin="round" stroke-miterlimit="10" data-original="#000000"></path>
    <path d="M290.607 452.139h-69.214c-18.001 0-32.593-14.592-32.593-32.593V352.63h134.4v66.916c0 18.001-14.593 32.593-32.593 32.593z" style="" fill="#8ac9fe" data-original="#8ac9fe"></path>
    <path d="M256.59 452.14c-18 0-32.59-14.59-32.59-32.59v-66.92h-35.2v66.92c0 18 14.59 32.59 32.59 32.59h35.2z" style="" fill="#60b7ff" data-original="#60b7ff"></path>
    <path d="M323.2 373.36v46.19c0 16.95-12.94 30.88-29.49 32.44" style="stroke-width:15;stroke-linecap:round;stroke-linejoin:round;stroke-miterlimit:10;" fill="none" stroke="#000000" stroke-width="15" stroke-linecap="round" stroke-linejoin="round" stroke-miterlimit="10" data-original="#000000"></path>
    <path d="M295.79 464.71c0-21.98-17.81-39.8-39.79-39.8s-39.79 17.82-39.79 39.8c0 5.25 1.02 10.26 2.87 14.85 16.188-6.634 20.19-2.978 36.92-2.978s18.518-4.8 36.92 2.978c1.85-4.59 2.87-9.6 2.87-14.85z" style="" fill="#ffdfcf" data-original="#ffdfcf"></path>
    <path d="M292.92 479.56c-5.88-14.63-20.19-24.95-36.92-24.95s-31.04 10.32-36.92 24.95c5.88 14.62 20.19 24.94 36.92 24.94s31.04-10.32 36.92-24.94z" style="" fill="#7a6d79" data-original="#7a6d79"></path>
    <circle cx="256" cy="464.706" r="39.794" style="stroke-width:15;stroke-linecap:round;stroke-linejoin:round;stroke-miterlimit:10;" fill="none" stroke="#000000" stroke-width="15" stroke-linecap="round" stroke-linejoin="round" stroke-miterlimit="10" data-original="#000000"></circle>
    <path d="M292.92 479.56c-5.88-14.63-20.19-24.95-36.92-24.95s-31.04 10.32-36.92 24.95" style="stroke-width:15;stroke-linecap:round;stroke-linejoin:round;stroke-miterlimit:10;" fill="none" stroke="#000000" stroke-width="15" stroke-linecap="round" stroke-linejoin="round" stroke-miterlimit="10" data-original="#000000"></path>
    <path d="m103.442 127.96-34.607 59.941c-9 15.589-3.659 35.523 11.93 44.523l57.951 33.458 67.2-116.394-57.951-33.458c-15.589-9-35.523-3.659-44.523 11.93z" style="" fill="#8ac9fe" data-original="#8ac9fe"></path>
    <path d="M86.433 157.419c-9 15.588-3.66 35.519 11.929 44.519l57.954 33.46-17.6 30.484-57.954-33.46c-15.588-9-20.929-28.93-11.929-44.519l17.6-30.484z" style="" fill="#60b7ff" data-original="#60b7ff"></path>
    <path d="m120.763 255.517-40.002-23.095c-14.679-8.475-20.273-26.646-13.349-41.759M105.123 125.347c9.626-13.553 28.16-17.794 42.839-9.319l40.002 23.095" style="stroke-width:15;stroke-linecap:round;stroke-linejoin:round;stroke-miterlimit:10;" fill="none" stroke="#000000" stroke-width="15" stroke-linecap="round" stroke-linejoin="round" stroke-miterlimit="10" data-original="#000000"></path>
    <path d="M95.147 117.186c19.035 10.99 25.563 35.324 14.573 54.359-10.99 19.035-35.328 25.549-54.363 14.559a39.622 39.622 0 0 1-11.425-9.91c13.839-10.703 12.674-15.996 21.039-30.485 8.365-14.489 13.416-13.637 15.881-33.463a39.64 39.64 0 0 1 14.295 4.94z" style="" fill="#ae6c6c" data-original="#ae6c6c"></path>
    <path d="M80.851 112.246c9.73 12.407 11.512 29.96 3.147 44.449-8.365 14.489-24.457 21.721-40.067 19.499-9.721-12.402-11.504-29.955-3.139-44.444 8.366-14.489 24.458-21.721 40.059-19.504z" style="" fill="#7a6d79" data-original="#7a6d79"></path>
    <circle cx="75.255" cy="151.647" r="39.794" style="stroke-width:15;stroke-linecap:round;stroke-linejoin:round;stroke-miterlimit:10;" fill="none" stroke="#000000" stroke-width="15" stroke-linecap="round" stroke-linejoin="round" stroke-miterlimit="10" data-original="#000000"></circle>
    <path d="M43.931 176.194c15.61 2.223 31.702-5.01 40.067-19.499 8.365-14.489 6.583-32.041-3.147-44.449" style="stroke-width:15;stroke-linecap:round;stroke-linejoin:round;stroke-miterlimit:10;" fill="none" stroke="#000000" stroke-width="15" stroke-linecap="round" stroke-linejoin="round" stroke-miterlimit="10" data-original="#000000"></path>
    <path d="m443.165 324.099-34.607 59.941c-9 15.589-28.934 20.93-44.523 11.93l-57.951-33.458 67.2-116.394 57.951 33.458c15.589 9.001 20.93 28.934 11.93 44.523z" style="" fill="#9be69d" data-original="#9be69d"></path>
    <path d="M426.157 353.559c-9 15.588-28.93 20.929-44.519 11.929l-57.954-33.46-17.6 30.484 57.954 33.46c15.588 9 35.519 3.66 44.519-11.929l17.6-30.484z" style="" fill="#6fd7a3" data-original="#6fd7a3"></path>
    <path d="M406.877 386.653c-9.626 13.553-28.16 17.794-42.839 9.319l-40.002-23.095M391.237 256.483l40.002 23.095c14.679 8.475 20.273 26.646 13.349 41.759" style="stroke-width:15;stroke-linecap:round;stroke-linejoin:round;stroke-miterlimit:10;" fill="none" stroke="#000000" stroke-width="15" stroke-linecap="round" stroke-linejoin="round" stroke-miterlimit="10" data-original="#000000"></path>
    <path d="M456.643 325.896c-19.035-10.99-43.373-4.476-54.363 14.559-10.99 19.035-4.462 43.369 14.573 54.359a39.612 39.612 0 0 0 14.295 4.939c2.349-17.336 7.516-18.974 15.881-33.462 8.365-14.489 5.102-18.437 21.039-30.485a39.608 39.608 0 0 0-11.425-9.91z" style="" fill="#ffdfcf" data-original="#ffdfcf"></path>
    <path d="M468.069 335.806c-15.61-2.223-31.702 5.01-40.067 19.499-8.365 14.489-6.583 32.041 3.147 44.449 15.601 2.218 31.694-5.015 40.059-19.504 8.364-14.489 6.582-32.041-3.139-44.444z" style="" fill="#7a6d79" data-original="#7a6d79"></path>
    <circle cx="436.745" cy="360.353" r="39.794" style="stroke-width:15;stroke-linecap:round;stroke-linejoin:round;stroke-miterlimit:10;" fill="none" stroke="#000000" stroke-width="15" stroke-linecap="round" stroke-linejoin="round" stroke-miterlimit="10" data-original="#000000"></circle>
    <path d="M468.069 335.806c-15.61-2.223-31.702 5.01-40.067 19.499-8.365 14.489-6.583 32.041 3.147 44.449" style="stroke-width:15;stroke-linecap:round;stroke-linejoin:round;stroke-miterlimit:10;" fill="none" stroke="#000000" stroke-width="15" stroke-linecap="round" stroke-linejoin="round" stroke-miterlimit="10" data-original="#000000"></path>
    <path d="m68.835 324.099 34.607 59.941c9 15.589 28.934 20.93 44.523 11.93l57.951-33.458-67.2-116.394-57.951 33.458c-15.589 9.001-20.93 28.934-11.93 44.523z" style="" fill="#7a6d79" data-original="#7a6d79"></path>
    <path d="M85.843 353.559c9 15.588 28.93 20.929 44.519 11.929l57.954-33.46 17.6 30.484-57.954 33.46c-15.588 9-35.519 3.66-44.519-11.929l-17.6-30.484z" style="" fill="#685e68" data-original="#685e68"></path>
    <path d="m187.963 372.877-40.002 23.095c-14.679 8.475-33.213 4.234-42.839-9.319M67.413 321.337c-6.924-15.113-1.33-33.284 13.349-41.759l15.31-8.839 24.692-14.256" style="stroke-width:15;stroke-linecap:round;stroke-linejoin:round;stroke-miterlimit:10;" fill="none" stroke="#000000" stroke-width="15" stroke-linecap="round" stroke-linejoin="round" stroke-miterlimit="10" data-original="#000000"></path>
    <path d="M55.357 325.896c19.035-10.99 43.373-4.476 54.363 14.559 10.99 19.035 4.462 43.369-14.573 54.359a39.612 39.612 0 0 1-14.295 4.939c-2.349-17.336-7.516-18.974-15.881-33.462-8.365-14.489-5.102-18.437-21.039-30.485a39.608 39.608 0 0 1 11.425-9.91z" style="" fill="#ffdfcf" data-original="#ffdfcf"></path>
    <path d="M43.931 335.806c15.61-2.223 31.702 5.01 40.067 19.499 8.365 14.489 6.583 32.041-3.147 44.449-15.601 2.218-31.694-5.015-40.059-19.504-8.364-14.489-6.582-32.041 3.139-44.444z" style="" fill="#7a6d79" data-original="#7a6d79"></path>
    <circle cx="75.255" cy="360.353" r="39.794" style="stroke-width:15;stroke-linecap:round;stroke-linejoin:round;stroke-miterlimit:10;" fill="none" stroke="#000000" stroke-width="15" stroke-linecap="round" stroke-linejoin="round" stroke-miterlimit="10" data-original="#000000"></circle>
    <path d="M80.851 399.754c9.73-12.407 11.512-29.96 3.147-44.449-8.365-14.489-24.457-21.721-40.067-19.499" style="stroke-width:15;stroke-linecap:round;stroke-linejoin:round;stroke-miterlimit:10;" fill="none" stroke="#000000" stroke-width="15" stroke-linecap="round" stroke-linejoin="round" stroke-miterlimit="10" data-original="#000000"></path>
    <path d="m408.558 127.96 34.607 59.941c9 15.589 3.659 35.523-11.93 44.523l-57.951 33.458-67.2-116.394 57.951-33.458c15.589-9 35.523-3.659 44.523 11.93z" style="" fill="#ffe177" data-original="#ffe177"></path>
    <path d="M425.567 157.419c9 15.588 3.66 35.519-11.929 44.519l-57.954 33.46 17.6 30.484 57.954-33.46c15.588-9 20.929-28.93 11.929-44.519l-17.6-30.484z" style="" fill="#fece85" data-original="#fece85"></path>
    <path d="M444.587 190.663c6.924 15.113 1.33 33.284-13.349 41.759l-40.002 23.095M324.037 139.123l26.81-15.479 13.192-7.616c14.679-8.475 33.213-4.234 42.839 9.319" style="stroke-width:15;stroke-linecap:round;stroke-linejoin:round;stroke-miterlimit:10;" fill="none" stroke="#000000" stroke-width="15" stroke-linecap="round" stroke-linejoin="round" stroke-miterlimit="10" data-original="#000000"></path>
    <path d="M416.853 117.186c-19.035 10.99-25.563 35.324-14.573 54.359 10.99 19.035 35.328 25.549 54.363 14.559a39.622 39.622 0 0 0 11.425-9.91c-13.839-10.703-12.674-15.996-21.039-30.485-8.365-14.489-13.416-13.637-15.881-33.463a39.64 39.64 0 0 0-14.295 4.94z" style="" fill="#ae6c6c" data-original="#ae6c6c"></path>
    <path d="M431.149 112.246c-9.73 12.407-11.512 29.96-3.147 44.449 8.365 14.489 24.457 21.721 40.067 19.499 9.721-12.402 11.504-29.955 3.139-44.444-8.366-14.489-24.458-21.721-40.059-19.504z" style="" fill="#7a6d79" data-original="#7a6d79"></path>
    <path d="M476.42 148.46c1.18 14.83-6.04 29.72-19.78 37.65-19.03 10.99-43.37 4.47-54.36-14.57-10.99-19.03-4.47-43.37 14.57-54.36 13.74-7.93 30.25-6.73 42.5 1.71" style="stroke-width:15;stroke-linecap:round;stroke-linejoin:round;stroke-miterlimit:10;" fill="none" stroke="#000000" stroke-width="15" stroke-linecap="round" stroke-linejoin="round" stroke-miterlimit="10" data-original="#000000"></path>
    <path d="M431.149 112.246c-9.73 12.407-11.512 29.96-3.147 44.449 8.365 14.489 24.457 21.721 40.067 19.499" style="stroke-width:15;stroke-linecap:round;stroke-linejoin:round;stroke-miterlimit:10;" fill="none" stroke="#000000" stroke-width="15" stroke-linecap="round" stroke-linejoin="round" stroke-miterlimit="10" data-original="#000000"></path>
    <circle cx="256" cy="256" r="135.219" style="" fill="#dc8758" data-original="#dc8758"></circle>
    <path d="m277.191 223.46-22.354 53.023a6.442 6.442 0 0 1-8.439 3.434l-74.766-31.52a6.442 6.442 0 0 1-3.434-8.439l22.354-53.023a6.442 6.442 0 0 1 8.439-3.434l74.766 31.52a6.442 6.442 0 0 1 3.434 8.439z" style="" fill="#d8ecfe" data-original="#d8ecfe"></path>
    <path d="M247.32 280.22a5.2 5.2 0 0 1-.92-.3l-74.77-31.52a6.445 6.445 0 0 1-3.43-8.44l22.35-53.03c1.38-3.27 5.16-4.81 8.44-3.43l72.17 30.43h.01" style="stroke-width:15;stroke-linecap:round;stroke-linejoin:round;stroke-miterlimit:10;" fill="none" stroke="#000000" stroke-width="15" stroke-linecap="round" stroke-linejoin="round" stroke-miterlimit="10" data-original="#000000"></path>
    <path d="m345.331 284.214-52.773 22.938a6.442 6.442 0 0 1-8.476-3.34l-32.344-74.414a6.442 6.442 0 0 1 3.34-8.476l52.773-22.938a6.442 6.442 0 0 1 8.476 3.34l32.344 74.414a6.442 6.442 0 0 1-3.34 8.476z" style="" fill="#f5f8f9" data-original="#f5f8f9"></path>
    <path d="m328.94 291.33 16.39-7.12a6.434 6.434 0 0 0 3.34-8.47l-32.34-74.42c-1.42-3.26-5.22-4.75-8.48-3.34l-36.68 15.95h-.01l-16.08 6.99a6.446 6.446 0 0 0-3.34 8.48l10.49 24.14" style="stroke-width:15;stroke-linecap:round;stroke-linejoin:round;stroke-miterlimit:10;" fill="none" stroke="#000000" stroke-width="15" stroke-linecap="round" stroke-linejoin="round" stroke-miterlimit="10" data-original="#000000"></path>
    <path d="m336.097 323.956-52.773 22.938a6.442 6.442 0 0 1-8.476-3.34l-32.344-74.414a6.442 6.442 0 0 1 3.34-8.476l52.773-22.937a6.442 6.442 0 0 1 8.476 3.34l32.344 74.414a6.441 6.441 0 0 1-3.34 8.475z" style="" fill="#f5f8f9" data-original="#f5f8f9"></path>
    <path d="m298.21 340.42 37.89-16.46c3.26-1.42 4.76-5.22 3.34-8.48l-32.35-74.41c-1.41-3.27-5.21-4.76-8.47-3.34l-52.78 22.93c-3.26 1.42-4.75 5.22-3.34 8.48l30.43 69.99" style="stroke-width:15;stroke-linecap:round;stroke-linejoin:round;stroke-miterlimit:10;" fill="none" stroke="#000000" stroke-width="15" stroke-linecap="round" stroke-linejoin="round" stroke-miterlimit="10" data-original="#000000"></path>
    <path d="M267.703 390.227c-3.86.34-7.77.51-11.72.51-74.68 0-135.22-60.54-135.22-135.22s60.54-135.22 135.22-135.22c3.95 0 7.86.17 11.72.51-69.19 5.93-123.5 63.98-123.5 134.71s54.31 128.78 123.5 134.71z" style="" fill="#c57a44" data-original="#c57a44"></path>
    <path d="M159.53 161.24c24.54-24.97 58.69-40.46 96.47-40.46 24.81 0 48.05 6.68 68.04 18.35M120.78 256.48V256c0-24.44 6.49-47.37 17.84-67.16M222.69 387.08c10.65 2.71 21.81 4.14 33.31 4.14s22.66-1.44 33.31-4.14M125.82 292.7c9.68 34.41 32.63 63.25 62.98 80.66M352.85 161.62c23.74 24.38 38.37 57.67 38.37 94.38 0 50.22-27.38 94.05-68.02 117.36" style="stroke-width:15;stroke-linecap:round;stroke-linejoin:round;stroke-miterlimit:10;" fill="none" stroke="#000000" stroke-width="15" stroke-linecap="round" stroke-linejoin="round" stroke-miterlimit="10" data-original="#000000"></path>
    <path d="m277.47 367.626 11.84 11.84v40.08h33.89v-47.82c0-4.04-1.61-7.92-4.47-10.78l-17.29-17.29-17.038 7.235-6.932 16.735z" style="" fill="#8ac9fe" data-original="#8ac9fe"></path>
    <path d="m272.93 363.086 4.54 4.54 23.97-23.97-4.54-4.54a16.892 16.892 0 0 0-11.98-4.96c-4.34 0-8.68 1.65-11.99 4.96-6.61 6.62-6.61 17.35 0 23.97z" style="" fill="#ffdfcf" data-original="#ffdfcf"></path>
    <path d="m301.443 343.651-23.97 23.97M289.31 406.146v-26.68l-16.373-16.379c-6.615-6.618-6.616-17.345 0-23.962v0c6.618-6.621 17.35-6.622 23.97-.003l21.829 21.829a15.242 15.242 0 0 1 4.464 10.778v47.816" style="stroke-width:15;stroke-linecap:round;stroke-linejoin:round;stroke-miterlimit:10;" fill="none" stroke="#000000" stroke-width="15" stroke-linecap="round" stroke-linejoin="round" stroke-miterlimit="10" data-original="#000000"></path>
    <path d="m380.98 145.38-34.71 20.04-3.923 14.63-13.362 5.761c-2.423 9.038-15.976 6.04-13.553-3.003l-5.825-11.538 5.915-22.076a15.24 15.24 0 0 1 7.102-9.255l41.41-23.908" style="" fill="#ffe177" data-original="#ffe177"></path>
    <path d="M323.92 200.35c-1.45 0-2.93-.19-4.4-.58-9.03-2.43-14.4-11.72-11.98-20.75l2.07-7.75 32.74 8.78-2.07 7.74c-2.03 7.57-8.87 12.56-16.36 12.56z" style="" fill="#9b5e5e" data-original="#9b5e5e"></path>
    <path d="m342.346 180.049-32.74-8.77M370.125 151.647 346.27 165.42l-5.998 22.369c-2.423 9.038-11.713 14.401-20.752 11.982h0c-9.043-2.421-14.41-11.715-11.987-20.757l7.99-29.82a15.24 15.24 0 0 1 7.102-9.255l41.41-23.908" style="stroke-width:15;stroke-linecap:round;stroke-linejoin:round;stroke-miterlimit:10;" fill="none" stroke="#000000" stroke-width="15" stroke-linecap="round" stroke-linejoin="round" stroke-miterlimit="10" data-original="#000000"></path>
    <path d="m97.71 308.926 34.71-20.04 14.622 3.915s16.131-3.543 18.555-12.581c2.425-9.042-9.775-20.158-9.775-20.158l-22.081-5.917a15.24 15.24 0 0 0-11.566 1.523l-41.41 23.908 16.945 29.35z" style="" fill="#7a6d79" data-original="#7a6d79"></path>
    <path d="M176.122 278.496c0 1.45-.19 2.93-.58 4.4-2.43 9.03-11.72 14.4-20.75 11.98l-7.75-2.07 8.78-32.74 7.74 2.07c7.57 2.03 12.56 8.87 12.56 16.36z" style="" fill="#ffdfcf" data-original="#ffdfcf"></path>
    <path d="m110.388 301.606 22.032-12.72 22.371 5.99c9.039 2.42 18.329-2.943 20.752-11.981v0c2.425-9.042-2.94-18.337-11.983-20.76l-29.82-7.99a15.24 15.24 0 0 0-11.566 1.523l-41.41 23.908M155.82 260.07l-8.77 32.74" style="stroke-width:15;stroke-linecap:round;stroke-linejoin:round;stroke-miterlimit:10;" fill="none" stroke="#000000" stroke-width="15" stroke-linecap="round" stroke-linejoin="round" stroke-miterlimit="10" data-original="#000000"></path>
    <path d="m234.524 367.635-11.84 11.84v40.08h-33.89v-47.82c0-4.04 1.61-7.92 4.47-10.78l17.29-17.29 17.038 7.235 6.932 16.735z" style="" fill="#60b7ff" data-original="#60b7ff"></path>
    <path d="m239.064 363.095-4.54 4.54-23.97-23.97 4.54-4.54c3.31-3.31 7.65-4.96 11.98-4.96 4.34 0 8.68 1.65 11.99 4.96 6.61 6.62 6.61 17.35 0 23.97z" style="" fill="#ffdfcf" data-original="#ffdfcf"></path>
    <path d="M188.8 402.05v-30.32c0-4.04 1.61-7.92 4.46-10.78l21.83-21.83c3.31-3.31 7.65-4.96 11.99-4.96s8.68 1.65 11.98 4.96c6.62 6.62 6.62 17.35 0 23.97l-16.37 16.38v26.68M234.52 367.63l-23.97-23.97M188.8 402.05v-28.69M193.5 436.41c5.2 8.6 14.27 14.59 24.79 15.58" style="stroke-width:15;stroke-linecap:round;stroke-linejoin:round;stroke-miterlimit:10;" fill="none" stroke="#000000" stroke-width="15" stroke-linecap="round" stroke-linejoin="round" stroke-miterlimit="10" data-original="#000000"></path>
  </g>
</svg>